<?xml version="1.0" encoding="UTF-8" standalone="no"?>
<svg
   xmlns:dc="http://purl.org/dc/elements/1.1/"
   xmlns:cc="http://creativecommons.org/ns#"
   xmlns:rdf="http://www.w3.org/1999/02/22-rdf-syntax-ns#"
   xmlns:svg="http://www.w3.org/2000/svg"
   xmlns="http://www.w3.org/2000/svg"
   viewBox="0 0 1368.1067 804.23334"
   height="804.23334"
   width="1368.1067"
   xml:space="preserve"
   id="svg2"
   version="1.1"><metadata
     id="metadata8"><rdf:RDF><cc:Work
         rdf:about=""><dc:format>image/svg+xml</dc:format><dc:type
           rdf:resource="http://purl.org/dc/dcmitype/StillImage" /></cc:Work></rdf:RDF></metadata><defs
     id="defs6"><clipPath
       id="clipPath18"
       clipPathUnits="userSpaceOnUse"><path
         id="path16"
         d="M 0,603.175 H 1026.075 V 0 H 0 Z" /></clipPath></defs><g
     transform="matrix(1.3333333,0,0,-1.3333333,0,804.23333)"
     id="g10"><g
       id="g12"><g
         clip-path="url(#clipPath18)"
         id="g14"><g
           transform="translate(329.0889,301.3809)"
           id="g20"><path
             id="path22"
             style="fill:#dbdbda;fill-opacity:1;fill-rule:evenodd;stroke:none"
             d="m 0,0 c -2.33,-93.907 92.246,-169.595 183.953,-167.469 91.71,-2.342 185.701,73.101 183.643,167.005 l 0.343,302.213 -367.529,0.045 z" /></g><g
           transform="translate(659.3291,451.5156)"
           id="g24"><path
             id="path26"
             style="fill:#96c22c;fill-opacity:1;fill-rule:evenodd;stroke:none"
             d="m 0,0 c 0,38.15 -27.133,101.249 -49.885,98.311 -18.63,2.418 -40.666,-39.403 -48.054,-75.599 -7.404,36.196 -29.46,78.017 -48.066,75.599 -19.467,2.43 -40.938,-40.545 -47.716,-77.045 -6.914,36.5 -28.786,79.475 -47.654,77.045 C -264.861,101.249 -292.01,38.15 -292.01,0 c -4.819,-42.716 18.508,-59.258 38.817,-63.824 v -46.41 h 22.578 v 45.981 c 14.269,2.768 30.656,11.831 37.033,32.962 6.377,-20.114 22.09,-29.324 36.102,-32.533 v -46.41 h 22.587 v 46.003 c 14.429,2.78 30.545,11.797 37.057,32.759 6.505,-19.945 21.963,-29.098 36.082,-32.341 v -46.421 h 22.581 v 45.958 C -19.182,-60.422 4.994,-44.275 0,0" /></g><g
           transform="translate(559.5361,243.9287)"
           id="g28"><path
             id="path30"
             style="fill:#17498b;fill-opacity:1;fill-rule:evenodd;stroke:none"
             d="M 0,0 C -24.195,2.206 -22.719,13.958 -46.212,13.958 -69.701,13.958 -69.701,2.206 -93.884,0 c -24.225,2.206 -24.225,13.958 -47.698,13.958 -16.423,0 -21.391,-5.752 -31.447,-9.989 3.265,-5.947 6.949,-11.708 11.006,-17.268 5.081,2.496 10.768,4.487 20.441,4.487 23.473,0 23.473,-11.741 47.698,-13.934 24.183,2.193 24.183,13.934 47.672,13.934 23.493,0 22.017,-11.741 46.212,-13.934 24.223,2.193 24.223,13.934 47.705,13.934 8.838,0 14.344,-1.662 19.057,-3.831 4.002,5.527 7.614,11.264 10.816,17.22 C 68.625,8.714 63.395,13.958 47.705,13.958 24.223,13.958 24.223,2.206 0,0" /></g><g
           transform="translate(559.5361,290.124)"
           id="g32"><path
             id="path34"
             style="fill:#17498b;fill-opacity:1;fill-rule:evenodd;stroke:none"
             d="M 0,0 C -24.195,1.483 -22.719,13.968 -46.212,13.968 -69.701,13.968 -69.701,1.483 -93.884,0 c -24.225,1.483 -24.225,13.968 -47.698,13.968 -22.689,0 -23.523,-11.604 -46.047,-13.73 1.193,-7.469 2.996,-14.748 5.459,-21.787 17.414,3.629 19.877,12.771 40.588,12.771 23.473,0 23.473,-11.732 47.698,-13.945 24.183,2.213 24.183,13.945 47.672,13.945 23.493,0 22.017,-11.732 46.212,-13.945 24.223,2.213 24.223,13.945 47.705,13.945 20.152,0 23.059,-8.611 38.759,-12.465 2.384,7.015 4.183,14.217 5.334,21.606 C 71.146,2.781 69.949,13.968 47.705,13.968 24.223,13.968 24.223,1.483 0,0" /></g><g
           transform="translate(607.2412,350.2988)"
           id="g36"><path
             id="path38"
             style="fill:#17498b;fill-opacity:1;fill-rule:evenodd;stroke:none"
             d="M 0,0 C -23.482,0 -23.482,-12.475 -47.705,-13.944 -71.9,-12.475 -70.424,0 -93.917,0 -117.406,0 -117.406,-12.475 -141.589,-13.944 -165.814,-12.475 -165.814,0 -189.287,0 c -23.152,0 -23.524,-12.08 -47.426,-13.854 l -0.178,-22.757 c 24.08,1.718 24.383,13.886 47.604,13.886 23.473,0 23.473,-12.511 47.698,-13.958 24.183,1.447 24.183,13.958 47.672,13.958 23.493,0 22.017,-12.511 46.212,-13.958 24.223,1.447 24.223,13.958 47.705,13.958 22.776,0 23.523,-11.708 45.63,-13.762 l 0.067,22.746 C 23.523,-11.706 22.797,0 0,0" /></g><g
           transform="translate(59.4932,39.7256)"
           id="g40"><path
             id="path42"
             style="fill:#17498b;fill-opacity:1;fill-rule:nonzero;stroke:none"
             d="m 0,0 c -0.777,-0.081 -1.473,-0.167 -2.072,-0.274 -0.606,-0.106 -1.36,-0.311 -2.262,-0.623 -1.031,-0.335 -1.709,-0.894 -2.038,-1.674 -0.324,-0.78 -0.49,-1.593 -0.49,-2.45 v -6.421 c 0,-1.296 0.009,-2.341 0.039,-3.129 0.026,-0.791 0.059,-1.774 0.112,-2.939 -2.517,-1.554 -6.228,-3.021 -11.143,-4.396 -4.913,-1.372 -9.429,-2.062 -13.551,-2.062 -3.874,0 -7.5,0.609 -10.896,1.83 -3.392,1.219 -6.375,3.05 -8.935,5.488 -2.567,2.413 -4.582,5.414 -6.05,8.995 -1.474,3.579 -2.207,7.68 -2.207,12.3 0,4.31 0.689,8.292 2.074,11.953 1.38,3.66 3.38,6.812 5.993,9.458 2.563,2.624 5.683,4.646 9.371,6.073 3.677,1.43 7.758,2.142 12.235,2.142 3.038,0 5.851,-0.389 8.444,-1.169 2.589,-0.776 4.724,-1.603 6.409,-2.49 l 2.338,2.14 h 3.279 l 0.336,-20.148 h -3.315 c -1.907,6.055 -4.196,10.548 -6.86,13.489 -2.667,2.938 -6.034,4.405 -10.104,4.405 -4.827,0 -8.553,-2.182 -11.179,-6.539 -2.625,-4.363 -3.94,-10.372 -3.94,-18.025 0,-8.126 1.288,-14.483 3.866,-19.082 2.571,-4.596 6.223,-6.892 10.951,-6.892 2.213,0 4.175,0.348 5.897,1.03 1.725,0.69 3.063,1.485 4.017,2.394 v 11.204 c 0,0.933 -0.161,1.719 -0.489,2.354 -0.326,0.636 -0.979,1.189 -1.963,1.654 -0.751,0.362 -1.695,0.663 -2.826,0.892 -1.13,0.238 -2.073,0.405 -2.826,0.512 V 3.031 L 0,3.031 Z" /></g><g
           transform="translate(78.2256,70.3379)"
           id="g44"><path
             id="path46"
             style="fill:#17498b;fill-opacity:1;fill-rule:nonzero;stroke:none"
             d="m 0,0 c 0,-1.967 -0.738,-3.648 -2.205,-5.035 -1.474,-1.392 -3.214,-2.084 -5.227,-2.084 -2.032,0 -3.785,0.692 -5.255,2.084 -1.473,1.387 -2.205,3.068 -2.205,5.035 0,1.973 0.732,3.658 2.205,5.057 1.47,1.405 3.223,2.106 5.255,2.106 2.037,0 3.785,-0.701 5.243,-2.106 C -0.733,3.658 0,1.973 0,0 m 5.506,-53.063 h -23.831 v 2.841 c 0.655,0.049 1.294,0.117 1.92,0.193 0.632,0.078 1.173,0.206 1.624,0.389 0.805,0.313 1.372,0.759 1.695,1.341 0.328,0.589 0.489,1.361 0.489,2.318 v 22.642 c 0,0.903 -0.2,1.702 -0.598,2.397 -0.402,0.684 -0.909,1.233 -1.509,1.646 -0.452,0.317 -1.137,0.613 -2.055,0.895 -0.921,0.287 -1.755,0.469 -2.506,0.547 v 2.84 l 18.47,1.013 0.567,-0.588 v -30.888 c 0,-0.91 0.189,-1.678 0.565,-2.311 0.375,-0.642 0.92,-1.116 1.623,-1.422 0.503,-0.237 1.055,-0.44 1.659,-0.623 0.601,-0.183 1.229,-0.313 1.887,-0.389 z" /></g><g
           transform="translate(117.6504,36.0664)"
           id="g48"><path
             id="path50"
             style="fill:#17498b;fill-opacity:1;fill-rule:nonzero;stroke:none"
             d="m 0,0 c 0,1.947 -0.136,3.804 -0.412,5.582 -0.277,1.774 -0.768,3.365 -1.468,4.765 -0.681,1.4 -1.575,2.515 -2.686,3.347 -1.121,0.829 -2.48,1.247 -4.08,1.247 -1.636,0 -2.934,-0.295 -3.916,-0.877 -0.981,-0.584 -1.829,-1.34 -2.557,-2.275 v -22.064 c 0.149,-0.517 0.438,-1.183 0.863,-1.999 0.432,-0.82 0.855,-1.471 1.281,-1.961 0.627,-0.703 1.343,-1.225 2.144,-1.562 0.801,-0.334 1.678,-0.506 2.633,-0.506 2.483,0 4.468,1.383 5.96,4.144 C -0.746,-9.398 0,-5.346 0,0 m 13.537,0.154 c 0,-5.473 -1.771,-10.163 -5.309,-14.082 -3.541,-3.914 -8.022,-5.877 -13.444,-5.877 -2.412,0 -4.366,0.256 -5.874,0.763 -1.508,0.5 -2.751,1.119 -3.725,1.847 h -0.304 v -10.934 c 0,-0.908 0.193,-1.695 0.585,-2.369 0.388,-0.678 0.936,-1.169 1.638,-1.482 0.678,-0.282 1.645,-0.544 2.884,-0.778 1.244,-0.231 2.283,-0.375 3.113,-0.428 v -2.88 h -27.257 v 2.88 c 0.626,0.053 1.414,0.153 2.372,0.293 0.955,0.14 1.673,0.289 2.152,0.449 0.801,0.282 1.349,0.77 1.638,1.453 0.29,0.692 0.434,1.474 0.434,2.359 v 39.798 c -0.073,0.854 -0.271,1.609 -0.587,2.257 -0.311,0.649 -0.807,1.219 -1.485,1.712 -0.506,0.337 -1.172,0.61 -2,0.835 -0.828,0.217 -1.648,0.37 -2.452,0.448 v 2.84 l 18.399,1.013 0.566,-0.507 v -4.323 l 0.304,-0.076 c 1.656,1.743 3.493,3.091 5.512,4.046 2.023,0.961 4.027,1.438 6.004,1.438 5.201,0 9.306,-1.9 12.317,-5.699 3.012,-3.794 4.519,-8.798 4.519,-14.996" /></g><g
           transform="translate(183.2803,18.0947)"
           id="g52"><path
             id="path54"
             style="fill:#17498b;fill-opacity:1;fill-rule:nonzero;stroke:none"
             d="m 0,0 -17.979,-1.132 -0.568,0.547 v 5.096 h -0.227 c -0.85,-0.802 -1.689,-1.59 -2.502,-2.354 -0.817,-0.762 -1.79,-1.458 -2.923,-2.084 -1.279,-0.695 -2.489,-1.217 -3.626,-1.553 -1.147,-0.334 -2.808,-0.504 -4.99,-0.504 -3.791,0 -6.698,1.178 -8.721,3.538 -2.02,2.356 -3.027,5.694 -3.027,9.997 V 29.06 c 0,1.011 -0.187,1.834 -0.564,2.465 -0.375,0.642 -0.873,1.204 -1.496,1.694 -0.502,0.393 -1.148,0.671 -1.952,0.842 -0.796,0.168 -1.519,0.277 -2.168,0.329 v 2.839 l 18.211,1.013 0.412,-0.588 V 11.783 c 0,-2.67 0.498,-4.637 1.487,-5.908 0.996,-1.273 2.359,-1.913 4.091,-1.913 1.785,0 3.388,0.483 4.81,1.443 1.419,0.961 2.455,1.986 3.112,3.074 v 20.969 c 0,0.882 -0.167,1.675 -0.491,2.371 -0.329,0.703 -0.808,1.273 -1.434,1.715 -0.452,0.308 -1.101,0.518 -1.941,0.621 -0.841,0.103 -1.708,0.183 -2.584,0.235 v 2.839 l 18.323,1.013 0.566,-0.588 V 7.623 c 0,-0.907 0.175,-1.681 0.521,-2.314 0.352,-0.634 0.864,-1.174 1.541,-1.618 0.472,-0.305 1.09,-0.525 1.855,-0.639 C -1.503,2.938 -0.751,2.864 0,2.838 Z" /></g><g
           transform="translate(221.0176,17.2744)"
           id="g56"><path
             id="path58"
             style="fill:#17498b;fill-opacity:1;fill-rule:nonzero;stroke:none"
             d="m 0,0 h -37.1 v 2.688 l 21.625,32.368 c -2.992,0 -5.687,-0.043 -8.077,-0.117 -2.393,-0.081 -4.279,-0.391 -5.663,-0.934 -0.479,-0.186 -1.114,-1.122 -1.907,-2.823 -0.793,-1.703 -1.417,-3.468 -1.868,-5.308 h -2.639 V 38.593 H -0.563 V 36.181 L -22.278,3.538 c 0.601,0 1.484,-0.008 2.639,-0.036 1.16,-0.026 2.269,-0.037 3.325,-0.037 1.237,0 2.554,0.031 3.966,0.094 1.411,0.069 2.507,0.151 3.287,0.255 1.031,0.126 1.853,0.492 2.475,1.086 0.615,0.603 1.099,1.313 1.453,2.145 0.329,0.751 0.755,1.885 1.286,3.402 0.528,1.516 0.93,2.87 1.209,4.067 l 2.638,0 z" /></g><g
           transform="translate(271.4561,17.2744)"
           id="g60"><path
             id="path62"
             style="fill:#17498b;fill-opacity:1;fill-rule:nonzero;stroke:none"
             d="m 0,0 h -17.772 c -2.187,3.961 -4.183,7.316 -5.992,10.069 -1.808,2.753 -3.514,5.316 -5.122,7.664 l -2.22,-1.938 V 7.316 c 0,-0.937 0.133,-1.7 0.393,-2.296 0.268,-0.594 0.777,-1.038 1.529,-1.326 0.455,-0.208 0.98,-0.383 1.584,-0.543 0.604,-0.156 1.205,-0.26 1.809,-0.309 V 0 h -23.411 v 2.842 c 0.632,0.049 1.263,0.122 1.894,0.217 0.637,0.085 1.193,0.209 1.67,0.365 0.809,0.286 1.363,0.729 1.652,1.325 0.295,0.595 0.438,1.377 0.438,2.333 V 50.46 c 0,0.854 -0.185,1.743 -0.548,2.667 -0.362,0.918 -0.897,1.611 -1.599,2.076 -0.477,0.316 -1.196,0.568 -2.153,0.78 -0.955,0.211 -1.824,0.337 -2.599,0.389 v 2.841 l 18.774,1.014 0.567,-0.624 V 19.455 c 1.858,1.715 3.946,3.694 6.267,5.95 2.325,2.26 4.188,4.128 5.595,5.599 0.827,0.888 1.287,1.556 1.375,2.01 0.089,0.451 0.131,0.727 0.131,0.832 0,0.468 -0.397,0.858 -1.191,1.167 -0.793,0.315 -1.985,0.586 -3.583,0.819 v 2.761 h 19.154 v -2.686 c -2.508,-0.722 -4.423,-1.403 -5.738,-2.044 -1.32,-0.631 -2.758,-1.481 -4.314,-2.541 -1.025,-0.702 -2.028,-1.44 -2.99,-2.207 -0.962,-0.767 -2.075,-1.722 -3.327,-2.865 2.458,-3.686 4.729,-7.087 6.81,-10.229 2.083,-3.137 4.266,-6.45 6.55,-9.952 C -5.584,4.853 -4.621,4.033 -3.468,3.616 -2.312,3.204 -1.158,2.943 0,2.842 Z" /></g><g
           transform="translate(298.7803,24.3193)"
           id="g64"><path
             id="path66"
             style="fill:#17498b;fill-opacity:1;fill-rule:nonzero;stroke:none"
             d="m 0,0 c 0.554,1.445 0.96,3.215 1.225,5.287 0.262,2.077 0.393,4.487 0.393,7.238 0,1.814 -0.123,3.888 -0.376,6.223 -0.25,2.336 -0.626,4.177 -1.132,5.529 -0.6,1.629 -1.435,2.911 -2.505,3.847 -1.067,0.935 -2.42,1.404 -4.051,1.404 -1.783,0 -3.212,-0.508 -4.278,-1.517 -1.069,-1.017 -1.894,-2.324 -2.473,-3.932 -0.528,-1.476 -0.891,-3.209 -1.09,-5.194 -0.204,-1.982 -0.305,-4.05 -0.305,-6.208 0,-2.824 0.09,-5.162 0.263,-7.022 0.177,-1.85 0.604,-3.714 1.286,-5.581 0.574,-1.608 1.406,-2.88 2.486,-3.808 1.081,-0.937 2.448,-1.404 4.111,-1.404 1.508,0 2.8,0.437 3.883,1.303 C -1.484,-2.964 -0.631,-1.691 0,0 m 9.649,26.96 c 1.864,-1.79 3.285,-3.93 4.261,-6.419 0.983,-2.489 1.473,-5.19 1.473,-8.092 0,-2.883 -0.486,-5.596 -1.45,-8.154 -0.969,-2.554 -2.386,-4.744 -4.244,-6.558 -1.986,-1.94 -4.352,-3.436 -7.105,-4.468 -2.753,-1.038 -5.901,-1.556 -9.446,-1.556 -3.064,0 -5.887,0.449 -8.464,1.362 -2.578,0.904 -4.859,2.27 -6.846,4.086 -1.909,1.736 -3.418,3.882 -4.521,6.434 -1.107,2.555 -1.66,5.418 -1.66,8.577 0,3.114 0.485,5.886 1.452,8.307 0.964,2.426 2.421,4.586 4.354,6.481 1.859,1.813 4.156,3.22 6.881,4.217 2.727,0.999 5.774,1.497 9.144,1.497 3.517,0 6.617,-0.498 9.293,-1.497 C 5.446,30.18 7.74,28.773 9.649,26.96" /></g><g
           transform="translate(341.4883,38.3613)"
           id="g68"><path
             id="path70"
             style="fill:#17498b;fill-opacity:1;fill-rule:nonzero;stroke:none"
             d="m 0,0 c -1.42,-0.496 -2.816,-1.058 -4.209,-1.696 -1.383,-0.638 -2.516,-1.309 -3.403,-2.007 -0.928,-0.732 -1.664,-1.659 -2.19,-2.79 -0.533,-1.13 -0.798,-2.463 -0.798,-3.997 0,-2.028 0.447,-3.5 1.341,-4.406 0.896,-0.913 2,-1.364 3.315,-1.364 1.385,0 2.523,0.29 3.429,0.877 0.895,0.585 1.682,1.305 2.356,2.165 z m 18.701,-20.267 c -1.105,-0.494 -2.411,-0.945 -3.919,-1.363 -1.501,-0.417 -3.094,-0.621 -4.78,-0.621 -3.085,0 -5.355,0.473 -6.812,1.414 -1.456,0.948 -2.447,2.308 -2.97,4.068 H 0 c -0.858,-0.878 -1.683,-1.63 -2.481,-2.252 -0.789,-0.623 -1.639,-1.158 -2.542,-1.597 -1.184,-0.569 -2.322,-0.999 -3.418,-1.288 -1.096,-0.281 -2.622,-0.423 -4.588,-0.423 -2.925,0 -5.413,0.888 -7.478,2.666 -2.066,1.78 -3.1,4.139 -3.1,7.072 0,1.688 0.227,3.126 0.683,4.306 0.452,1.18 1.092,2.224 1.927,3.134 0.751,0.831 1.627,1.526 2.624,2.069 0.992,0.542 2.083,1.051 3.265,1.516 2.265,0.859 4.982,1.751 8.153,2.669 3.177,0.924 5.491,1.749 6.955,2.478 v 3.731 c 0,0.653 -0.052,1.507 -0.159,2.571 -0.095,1.062 -0.314,1.955 -0.638,2.682 -0.352,0.83 -0.904,1.533 -1.658,2.101 -0.752,0.569 -1.743,0.856 -2.981,0.856 -1.106,0 -2.035,-0.16 -2.77,-0.486 -0.746,-0.323 -1.342,-0.654 -1.787,-0.991 0.07,-0.522 0.289,-1.313 0.639,-2.374 0.349,-1.065 0.527,-2.085 0.527,-3.077 0,-0.438 -0.115,-0.99 -0.344,-1.646 -0.221,-0.669 -0.552,-1.19 -0.982,-1.579 -0.578,-0.518 -1.227,-0.921 -1.947,-1.206 -0.717,-0.284 -1.821,-0.43 -3.305,-0.43 -2.117,0 -3.72,0.528 -4.799,1.577 -1.088,1.047 -1.628,2.416 -1.628,4.106 0,1.451 0.558,2.756 1.675,3.909 1.122,1.154 2.484,2.109 4.095,2.858 1.577,0.78 3.404,1.379 5.462,1.809 2.06,0.432 3.972,0.64 5.734,0.64 2.436,0 4.673,-0.149 6.706,-0.445 2.035,-0.301 3.876,-0.912 5.506,-1.845 1.56,-0.908 2.796,-2.224 3.717,-3.95 0.912,-1.729 1.375,-3.978 1.375,-6.752 0,-2.927 -0.06,-6.408 -0.171,-10.424 -0.115,-4.024 -0.167,-6.666 -0.167,-7.938 0,-1.166 0.167,-2.087 0.505,-2.76 0.344,-0.679 0.863,-1.179 1.572,-1.518 0.42,-0.206 1.095,-0.329 2.014,-0.371 0.913,-0.037 1.753,-0.058 2.51,-0.058 z" /></g><g
           transform="translate(409.5322,17.2744)"
           id="g72"><path
             id="path74"
             style="fill:#17498b;fill-opacity:1;fill-rule:nonzero;stroke:none"
             d="m 0,0 h -17.775 c -2.181,3.961 -4.18,7.316 -5.985,10.069 -1.806,2.753 -3.518,5.316 -5.121,7.664 l -2.227,-1.938 V 7.316 c 0,-0.937 0.129,-1.7 0.396,-2.296 0.271,-0.594 0.778,-1.038 1.534,-1.326 0.444,-0.208 0.971,-0.383 1.575,-0.543 0.607,-0.156 1.212,-0.26 1.817,-0.309 V 0 h -23.416 v 2.842 c 0.632,0.049 1.26,0.122 1.891,0.217 0.64,0.085 1.193,0.209 1.676,0.365 0.807,0.286 1.36,0.729 1.647,1.325 0.3,0.595 0.438,1.377 0.438,2.333 V 50.46 c 0,0.854 -0.182,1.743 -0.543,2.667 -0.368,0.918 -0.903,1.611 -1.602,2.076 -0.475,0.316 -1.195,0.568 -2.15,0.78 -0.956,0.211 -1.82,0.337 -2.603,0.389 v 2.841 l 18.779,1.014 0.561,-0.624 V 19.455 c 1.857,1.715 3.944,3.694 6.267,5.95 2.325,2.26 4.191,4.128 5.595,5.599 0.832,0.888 1.289,1.556 1.377,2.01 0.086,0.451 0.13,0.727 0.13,0.832 0,0.468 -0.394,0.858 -1.191,1.167 -0.789,0.315 -1.981,0.586 -3.579,0.819 v 2.761 h 19.148 v -2.686 c -2.507,-0.722 -4.418,-1.403 -5.733,-2.044 -1.325,-0.631 -2.763,-1.481 -4.312,-2.541 -1.027,-0.702 -2.027,-1.44 -2.99,-2.207 -0.966,-0.767 -2.079,-1.722 -3.333,-2.865 2.463,-3.686 4.736,-7.087 6.813,-10.229 2.087,-3.137 4.269,-6.45 6.55,-9.952 0.78,-1.216 1.742,-2.036 2.9,-2.453 C -2.31,3.204 -1.161,2.943 0,2.842 Z" /></g><g
           transform="translate(436.8584,24.3193)"
           id="g76"><path
             id="path78"
             style="fill:#17498b;fill-opacity:1;fill-rule:nonzero;stroke:none"
             d="m 0,0 c 0.552,1.445 0.965,3.215 1.228,5.287 0.264,2.077 0.394,4.487 0.394,7.238 0,1.814 -0.122,3.888 -0.375,6.223 -0.257,2.336 -0.632,4.177 -1.133,5.529 -0.605,1.629 -1.437,2.911 -2.508,3.847 -1.07,0.935 -2.419,1.404 -4.049,1.404 -1.787,0 -3.218,-0.508 -4.281,-1.517 -1.069,-1.017 -1.89,-2.324 -2.469,-3.932 -0.529,-1.476 -0.896,-3.209 -1.097,-5.194 -0.201,-1.982 -0.297,-4.05 -0.297,-6.208 0,-2.824 0.085,-5.162 0.261,-7.022 0.177,-1.85 0.604,-3.714 1.28,-5.581 0.579,-1.608 1.412,-2.88 2.491,-3.808 1.076,-0.937 2.448,-1.404 4.112,-1.404 1.506,0 2.796,0.437 3.882,1.303 C -1.479,-2.964 -0.633,-1.691 0,0 m 9.654,26.96 c 1.858,-1.79 3.277,-3.93 4.258,-6.419 0.984,-2.489 1.475,-5.19 1.475,-8.092 0,-2.883 -0.491,-5.596 -1.457,-8.154 -0.963,-2.554 -2.385,-4.744 -4.242,-6.558 -1.981,-1.94 -4.347,-3.436 -7.101,-4.468 -2.752,-1.038 -5.901,-1.556 -9.45,-1.556 -3.061,0 -5.885,0.449 -8.463,1.362 -2.575,0.904 -4.856,2.27 -6.846,4.086 -1.91,1.736 -3.419,3.882 -4.523,6.434 -1.11,2.555 -1.659,5.418 -1.659,8.577 0,3.114 0.483,5.886 1.456,8.307 0.965,2.426 2.421,4.586 4.349,6.481 1.858,1.813 4.154,3.22 6.881,4.217 2.727,0.999 5.777,1.497 9.147,1.497 3.514,0 6.617,-0.498 9.291,-1.497 2.674,-0.997 4.971,-2.404 6.884,-4.217" /></g><g
           transform="translate(521.3291,57.7354)"
           id="g80"><path
             id="path82"
             style="fill:#17498b;fill-opacity:1;fill-rule:nonzero;stroke:none"
             d="m 0,0 h -2.938 c -0.727,2.145 -2.016,4.423 -3.867,6.841 -1.84,2.417 -3.592,3.745 -5.249,3.972 -0.747,0.107 -1.754,0.193 -3.009,0.271 -1.253,0.081 -2.411,0.121 -3.461,0.121 h -8.32 v -21.633 h 5.313 c 1.508,0 2.823,0.176 3.927,0.526 1.104,0.351 2.086,0.982 2.938,1.891 0.631,0.642 1.234,1.73 1.832,3.245 0.586,1.519 0.946,2.819 1.069,3.91 H -8.9 v -23.223 h -2.865 c -0.096,1.165 -0.491,2.587 -1.167,4.258 -0.675,1.675 -1.254,2.781 -1.734,3.324 -0.729,0.835 -1.657,1.448 -2.791,1.852 -1.129,0.398 -2.488,0.6 -4.074,0.6 h -5.313 v -18.286 c 0,-0.931 0.166,-1.729 0.509,-2.39 0.341,-0.662 0.988,-1.202 1.946,-1.614 0.551,-0.238 1.305,-0.447 2.278,-0.64 0.965,-0.199 1.927,-0.344 2.883,-0.452 v -3.034 h -28.84 v 3.034 c 0.724,0.078 1.689,0.189 2.901,0.329 1.208,0.144 2.051,0.322 2.523,0.525 0.904,0.371 1.535,0.869 1.886,1.519 0.35,0.646 0.526,1.482 0.526,2.49 v 38.94 c 0,0.887 -0.15,1.66 -0.464,2.317 -0.317,0.665 -0.964,1.214 -1.948,1.656 -0.699,0.313 -1.631,0.597 -2.787,0.856 -1.159,0.257 -2.035,0.425 -2.637,0.505 v 3.032 l 48.068,0 z" /></g><g
           transform="translate(551.6006,24.3193)"
           id="g84"><path
             id="path86"
             style="fill:#17498b;fill-opacity:1;fill-rule:nonzero;stroke:none"
             d="m 0,0 c 0.555,1.445 0.955,3.215 1.22,5.287 0.263,2.077 0.393,4.487 0.393,7.238 0,1.814 -0.123,3.888 -0.377,6.223 -0.245,2.336 -0.623,4.177 -1.129,5.529 -0.597,1.629 -1.437,2.911 -2.507,3.847 -1.063,0.935 -2.422,1.404 -4.052,1.404 -1.779,0 -3.207,-0.508 -4.277,-1.517 -1.07,-1.017 -1.895,-2.324 -2.474,-3.932 -0.525,-1.476 -0.884,-3.209 -1.085,-5.194 -0.204,-1.982 -0.309,-4.05 -0.309,-6.208 0,-2.824 0.089,-5.162 0.265,-7.022 0.174,-1.85 0.604,-3.714 1.289,-5.581 0.568,-1.608 1.4,-2.88 2.48,-3.808 1.086,-0.937 2.454,-1.404 4.111,-1.404 1.508,0 2.805,0.437 3.885,1.303 C -1.489,-2.964 -0.631,-1.691 0,0 m 9.645,26.96 c 1.868,-1.79 3.288,-3.93 4.261,-6.419 0.981,-2.489 1.471,-5.19 1.471,-8.092 0,-2.883 -0.48,-5.596 -1.444,-8.154 -0.975,-2.554 -2.386,-4.744 -4.245,-6.558 -1.99,-1.94 -4.357,-3.436 -7.11,-4.468 -2.753,-1.038 -5.898,-1.556 -9.443,-1.556 -3.067,0 -5.889,0.449 -8.467,1.362 -2.578,0.904 -4.858,2.27 -6.84,4.086 -1.909,1.736 -3.418,3.882 -4.524,6.434 -1.103,2.555 -1.657,5.418 -1.657,8.577 0,3.114 0.482,5.886 1.449,8.307 0.962,2.426 2.418,4.586 4.357,6.481 1.859,1.813 4.154,3.22 6.88,4.217 2.728,0.999 5.77,1.497 9.144,1.497 3.517,0 6.612,-0.498 9.294,-1.497 2.675,-0.997 4.963,-2.404 6.874,-4.217" /></g><g
           transform="translate(607.4561,48.749)"
           id="g88"><path
             id="path90"
             style="fill:#17498b;fill-opacity:1;fill-rule:nonzero;stroke:none"
             d="m 0,0 c 0,-1.974 -0.587,-3.704 -1.771,-5.193 -1.181,-1.493 -2.735,-2.237 -4.672,-2.237 -1.833,0 -3.385,0.474 -4.657,1.428 -1.271,0.955 -1.902,2.369 -1.902,4.228 0,0.903 0.063,1.604 0.186,2.113 0.13,0.498 0.234,0.97 0.341,1.409 -1.158,-0.053 -2.377,-0.465 -3.656,-1.234 -1.281,-0.768 -2.41,-1.798 -3.394,-3.082 v -21.356 c 0,-0.907 0.141,-1.664 0.413,-2.259 0.281,-0.595 0.746,-1.059 1.395,-1.404 0.551,-0.279 1.454,-0.524 2.698,-0.719 1.247,-0.191 2.139,-0.303 2.693,-0.327 v -2.842 h -25.221 v 2.842 c 0.631,0.049 1.259,0.122 1.901,0.217 0.639,0.085 1.193,0.209 1.638,0.365 0.808,0.286 1.361,0.73 1.666,1.325 0.3,0.595 0.448,1.377 0.448,2.333 V -1.75 c 0,0.93 -0.21,1.77 -0.641,2.509 -0.428,0.735 -0.938,1.327 -1.543,1.771 -0.455,0.31 -1.025,0.57 -1.716,0.776 -0.694,0.206 -1.449,0.351 -2.28,0.429 v 2.84 L -20.094,7.588 -19.525,7 V 1.364 h 0.151 c 1.735,2.074 3.575,3.698 5.521,4.882 1.947,1.174 3.983,1.767 6.094,1.767 2.332,0 4.207,-0.744 5.628,-2.237 C -0.71,4.284 0,2.358 0,0" /></g><g
           transform="translate(657.2979,18.0947)"
           id="g92"><path
             id="path94"
             style="fill:#17498b;fill-opacity:1;fill-rule:nonzero;stroke:none"
             d="m 0,0 -17.981,-1.132 -0.572,0.547 v 5.096 h -0.226 c -0.852,-0.802 -1.684,-1.59 -2.499,-2.354 -0.815,-0.762 -1.789,-1.458 -2.921,-2.084 -1.279,-0.695 -2.489,-1.217 -3.63,-1.553 -1.148,-0.334 -2.804,-0.504 -4.985,-0.504 -3.797,0 -6.7,1.178 -8.724,3.538 -2.018,2.356 -3.027,5.694 -3.027,9.997 V 29.06 c 0,1.011 -0.19,1.834 -0.559,2.465 -0.377,0.642 -0.876,1.204 -1.5,1.694 -0.501,0.393 -1.148,0.671 -1.954,0.842 -0.799,0.168 -1.519,0.277 -2.166,0.329 v 2.839 l 18.209,1.013 0.412,-0.588 V 11.783 c 0,-2.67 0.501,-4.637 1.49,-5.908 0.99,-1.273 2.358,-1.913 4.085,-1.913 1.788,0 3.393,0.483 4.816,1.443 1.419,0.961 2.452,1.986 3.109,3.074 v 20.969 c 0,0.882 -0.166,1.675 -0.49,2.371 -0.334,0.703 -0.807,1.273 -1.439,1.715 -0.446,0.308 -1.094,0.518 -1.934,0.621 -0.845,0.103 -1.713,0.183 -2.589,0.235 v 2.839 l 18.325,1.013 0.568,-0.588 V 7.623 c 0,-0.907 0.176,-1.681 0.517,-2.314 C -5.312,4.675 -4.796,4.135 -4.12,3.691 -3.647,3.386 -3.034,3.166 -2.272,3.052 -1.508,2.938 -0.754,2.864 0,2.838 Z" /></g><g
           transform="translate(706.4971,39.6055)"
           id="g96"><path
             id="path98"
             style="fill:#17498b;fill-opacity:1;fill-rule:nonzero;stroke:none"
             d="M 0,0 -7.749,19.956 -15.377,0 Z M 28.108,-22.331 H -1.033 v 3.034 c 1.348,0.108 2.945,0.356 4.778,0.76 1.832,0.402 2.742,0.902 2.742,1.498 0,0.211 -0.015,0.438 -0.052,0.702 -0.035,0.258 -0.15,0.602 -0.324,1.051 L 1.553,-3.852 h -18.472 c -0.43,-1.062 -0.894,-2.306 -1.404,-3.737 -0.516,-1.425 -0.955,-2.695 -1.332,-3.809 -0.473,-1.451 -0.755,-2.501 -0.841,-3.152 -0.096,-0.647 -0.142,-1.104 -0.142,-1.357 0,-0.835 0.614,-1.539 1.833,-2.123 1.218,-0.585 3.242,-1.009 6.085,-1.267 v -3.034 h -21.946 v 3.034 c 0.833,0.054 1.766,0.189 2.807,0.407 1.043,0.22 1.867,0.528 2.473,0.916 1.033,0.624 1.902,1.391 2.618,2.294 0.722,0.911 1.316,1.987 1.791,3.231 2.92,7.288 5.84,14.595 8.768,21.904 2.927,7.313 6.163,15.378 9.704,24.197 H 1.036 C 5.963,21.151 9.818,11.27 12.616,4.011 c 2.786,-7.267 5.165,-13.282 7.119,-18.052 0.333,-0.781 0.746,-1.491 1.244,-2.122 0.509,-0.639 1.219,-1.242 2.15,-1.811 0.711,-0.417 1.524,-0.722 2.453,-0.933 0.929,-0.209 1.772,-0.336 2.526,-0.39 z" /></g><g
           transform="translate(755.7861,17.2744)"
           id="g100"><path
             id="path102"
             style="fill:#17498b;fill-opacity:1;fill-rule:nonzero;stroke:none"
             d="m 0,0 h -23.75 v 2.842 c 0.656,0.049 1.299,0.116 1.92,0.192 0.612,0.078 1.166,0.206 1.648,0.39 0.806,0.312 1.361,0.759 1.65,1.341 0.286,0.589 0.438,1.361 0.438,2.317 v 43.106 c 0,0.982 -0.193,1.9 -0.59,2.745 -0.383,0.84 -0.91,1.482 -1.56,1.923 -0.499,0.336 -1.261,0.663 -2.278,0.968 -1.019,0.319 -1.92,0.496 -2.701,0.548 v 2.841 l 19.006,1.014 0.562,-0.624 V 7.587 c 0,-0.962 0.167,-1.737 0.49,-2.334 C -4.83,4.655 -4.295,4.187 -3.568,3.854 -3.059,3.616 -2.523,3.413 -1.973,3.23 -1.412,3.048 -0.756,2.917 0,2.842 Z" /></g><g
           transform="translate(786.8828,25.0166)"
           id="g104"><path
             id="path106"
             style="fill:#17498b;fill-opacity:1;fill-rule:nonzero;stroke:none"
             d="m 0,0 v 21.982 c -0.174,0.596 -0.422,1.254 -0.737,1.984 -0.305,0.726 -0.744,1.409 -1.298,2.059 -0.498,0.547 -1.166,1.026 -2.005,1.443 -0.845,0.415 -1.791,0.622 -2.843,0.622 -2.508,0 -4.558,-1.467 -6.171,-4.398 -1.604,-2.927 -2.402,-7.065 -2.402,-12.407 0,-2.103 0.14,-3.992 0.43,-5.662 0.289,-1.672 0.797,-3.199 1.524,-4.572 0.728,-1.375 1.659,-2.447 2.807,-3.231 1.137,-0.78 2.508,-1.163 4.109,-1.163 1.535,0 2.798,0.305 3.808,0.91 C -1.779,-1.819 -0.85,-1.013 0,0 M 19.227,-6.922 0.641,-8.054 0.079,-7.507 v 3.579 l -0.264,0.074 c -1.236,-1.373 -2.893,-2.573 -4.988,-3.593 -2.103,-1.027 -4.218,-1.537 -6.347,-1.537 -5.068,0 -9.25,1.944 -12.538,5.835 -3.287,3.889 -4.933,8.923 -4.933,15.094 0,5.471 1.839,10.167 5.513,14.08 3.681,3.919 8.127,5.873 13.352,5.873 2.062,0 3.989,-0.234 5.795,-0.718 C -2.525,30.703 -1.08,30.135 0,29.487 v 12.721 c 0,0.967 -0.185,1.863 -0.56,2.712 -0.378,0.84 -0.887,1.493 -1.509,1.961 -0.78,0.569 -1.753,0.977 -2.928,1.223 -1.166,0.247 -2.342,0.421 -3.524,0.526 v 2.841 L 11.878,52.484 12.44,51.86 V 0.855 c 0,-0.983 0.159,-1.813 0.475,-2.491 0.306,-0.674 0.814,-1.206 1.516,-1.594 0.527,-0.28 1.288,-0.491 2.306,-0.624 1.008,-0.125 1.839,-0.204 2.49,-0.23 z" /></g><g
           transform="translate(855.835,18.0947)"
           id="g108"><path
             id="path110"
             style="fill:#17498b;fill-opacity:1;fill-rule:nonzero;stroke:none"
             d="m 0,0 -17.981,-1.132 -0.57,0.547 v 5.096 h -0.228 c -0.85,-0.802 -1.682,-1.59 -2.496,-2.354 -0.818,-0.762 -1.791,-1.458 -2.921,-2.084 -1.281,-0.695 -2.489,-1.217 -3.628,-1.553 -1.149,-0.334 -2.807,-0.504 -4.989,-0.504 -3.798,0 -6.7,1.178 -8.724,3.538 -2.017,2.356 -3.025,5.694 -3.025,9.997 V 29.06 c 0,1.011 -0.193,1.834 -0.56,2.465 -0.379,0.642 -0.878,1.204 -1.502,1.694 -0.498,0.393 -1.147,0.671 -1.954,0.842 -0.797,0.168 -1.516,0.277 -2.164,0.329 v 2.839 l 18.209,1.013 0.41,-0.588 V 11.783 c 0,-2.67 0.5,-4.637 1.492,-5.908 0.99,-1.273 2.358,-1.913 4.084,-1.913 1.789,0 3.395,0.483 4.815,1.443 1.419,0.961 2.455,1.986 3.113,3.074 v 20.969 c 0,0.882 -0.168,1.675 -0.49,2.371 -0.335,0.703 -0.811,1.273 -1.442,1.715 -0.445,0.308 -1.095,0.518 -1.935,0.621 -0.843,0.103 -1.71,0.183 -2.586,0.235 v 2.839 l 18.323,1.013 0.567,-0.588 V 7.623 c 0,-0.907 0.176,-1.681 0.521,-2.314 C -5.312,4.675 -4.796,4.135 -4.119,3.691 -3.646,3.386 -3.034,3.166 -2.27,3.052 -1.508,2.938 -0.754,2.864 0,2.838 Z" /></g><g
           transform="translate(906.7627,17.2744)"
           id="g112"><path
             id="path114"
             style="fill:#17498b;fill-opacity:1;fill-rule:nonzero;stroke:none"
             d="m 0,0 h -22.652 v 2.842 c 0.473,0.049 1.051,0.116 1.736,0.192 0.676,0.078 1.191,0.206 1.542,0.39 0.526,0.286 0.901,0.702 1.132,1.247 0.226,0.543 0.341,1.348 0.341,2.411 V 25.29 c 0,2.644 -0.475,4.639 -1.421,5.971 -0.949,1.331 -2.341,2.004 -4.181,2.004 -1.009,0 -1.946,-0.156 -2.814,-0.47 -0.87,-0.309 -1.718,-0.763 -2.553,-1.36 -0.728,-0.517 -1.314,-1.052 -1.761,-1.595 -0.439,-0.543 -0.807,-1.028 -1.114,-1.441 V 7.509 c 0,-0.913 0.133,-1.664 0.377,-2.28 0.254,-0.602 0.666,-1.07 1.246,-1.375 0.404,-0.238 0.902,-0.441 1.507,-0.624 0.605,-0.182 1.193,-0.313 1.771,-0.388 V 0 h -22.918 v 2.842 c 0.622,0.049 1.265,0.122 1.904,0.217 0.639,0.085 1.184,0.209 1.638,0.365 0.807,0.286 1.361,0.729 1.657,1.325 0.308,0.595 0.457,1.377 0.457,2.333 v 22.643 c 0,0.804 -0.201,1.597 -0.605,2.373 -0.402,0.774 -0.93,1.417 -1.587,1.907 -0.447,0.309 -1.025,0.569 -1.71,0.775 -0.693,0.206 -1.456,0.352 -2.288,0.43 v 2.84 l 17.989,1.013 0.562,-0.588 v -5.636 h 0.147 c 0.713,0.648 1.561,1.425 2.571,2.33 1.007,0.908 1.937,1.649 2.788,2.219 0.931,0.622 2.147,1.152 3.655,1.595 1.508,0.44 3.121,0.658 4.832,0.658 4.095,0 7.163,-1.196 9.213,-3.595 2.053,-2.401 3.077,-5.585 3.077,-9.551 V 7.431 c 0,-0.96 0.133,-1.727 0.412,-2.296 0.273,-0.572 0.789,-1.029 1.542,-1.36 C -3.104,3.591 -2.603,3.413 -2.016,3.23 -1.428,3.048 -0.755,2.917 0,2.842 Z" /></g><g
           transform="translate(937.8242,25.0166)"
           id="g116"><path
             id="path118"
             style="fill:#17498b;fill-opacity:1;fill-rule:nonzero;stroke:none"
             d="m 0,0 v 21.982 c -0.175,0.596 -0.42,1.254 -0.735,1.984 -0.317,0.726 -0.744,1.409 -1.298,2.059 -0.501,0.547 -1.175,1.026 -2.017,1.443 -0.832,0.415 -1.779,0.622 -2.83,0.622 -2.509,0 -4.57,-1.467 -6.173,-4.398 -1.604,-2.927 -2.411,-7.065 -2.411,-12.407 0,-2.103 0.151,-3.992 0.441,-5.662 0.286,-1.672 0.794,-3.199 1.522,-4.572 0.72,-1.375 1.656,-2.447 2.797,-3.231 1.141,-0.78 2.516,-1.163 4.121,-1.163 1.527,0 2.797,0.305 3.795,0.91 1,0.614 1.929,1.42 2.788,2.433 M 19.228,-6.922 0.642,-8.054 0.069,-7.507 v 3.579 l -0.262,0.074 c -1.226,-1.373 -2.891,-2.573 -4.988,-3.593 -2.093,-1.027 -4.208,-1.537 -6.347,-1.537 -5.068,0 -9.25,1.944 -12.535,5.835 -3.288,3.889 -4.929,8.923 -4.929,15.094 0,5.471 1.832,10.167 5.515,14.08 3.672,3.919 8.125,5.873 13.342,5.873 2.062,0 3.997,-0.234 5.806,-0.718 1.806,-0.477 3.252,-1.045 4.329,-1.693 v 12.721 c 0,0.967 -0.193,1.863 -0.569,2.712 -0.378,0.84 -0.876,1.493 -1.508,1.961 -0.78,0.569 -1.754,0.977 -2.921,1.223 -1.175,0.247 -2.349,0.421 -3.523,0.526 v 2.841 L 11.873,52.484 12.44,51.86 V 0.855 c 0,-0.983 0.16,-1.813 0.465,-2.491 0.317,-0.674 0.826,-1.206 1.518,-1.594 0.525,-0.28 1.299,-0.491 2.306,-0.624 1.017,-0.125 1.849,-0.204 2.499,-0.23 z" /></g><g
           transform="translate(975.9365,70.3379)"
           id="g120"><path
             id="path122"
             style="fill:#17498b;fill-opacity:1;fill-rule:nonzero;stroke:none"
             d="m 0,0 c 0,-1.967 -0.738,-3.648 -2.211,-5.035 -1.471,-1.392 -3.209,-2.084 -5.224,-2.084 -2.035,0 -3.788,0.692 -5.253,2.084 -1.473,1.387 -2.209,3.068 -2.209,5.035 0,1.973 0.736,3.658 2.209,5.057 1.465,1.405 3.218,2.106 5.253,2.106 2.041,0 3.788,-0.701 5.244,-2.106 C -0.738,3.658 0,1.973 0,0 m 5.506,-53.063 h -23.829 v 2.841 c 0.647,0.049 1.286,0.117 1.917,0.193 0.633,0.078 1.167,0.206 1.625,0.389 0.805,0.313 1.366,0.759 1.689,1.341 0.335,0.589 0.494,1.361 0.494,2.318 v 22.642 c 0,0.903 -0.203,1.702 -0.597,2.397 -0.404,0.684 -0.912,1.233 -1.508,1.646 -0.457,0.317 -1.141,0.613 -2.06,0.895 -0.921,0.287 -1.753,0.469 -2.508,0.547 v 2.84 l 18.472,1.013 0.57,-0.588 v -30.888 c 0,-0.91 0.184,-1.678 0.56,-2.311 0.378,-0.642 0.921,-1.116 1.623,-1.422 0.509,-0.237 1.06,-0.44 1.665,-0.623 0.597,-0.183 1.229,-0.313 1.887,-0.389 z" /></g><g
           transform="translate(1007.373,38.3613)"
           id="g124"><path
             id="path126"
             style="fill:#17498b;fill-opacity:1;fill-rule:nonzero;stroke:none"
             d="m 0,0 c -1.418,-0.496 -2.813,-1.058 -4.208,-1.696 -1.383,-0.638 -2.516,-1.309 -3.399,-2.007 -0.931,-0.732 -1.668,-1.659 -2.193,-2.79 -0.535,-1.13 -0.798,-2.463 -0.798,-3.997 0,-2.028 0.447,-3.5 1.341,-4.406 0.896,-0.913 1.998,-1.364 3.314,-1.364 1.384,0 2.524,0.29 3.428,0.877 0.896,0.585 1.684,1.305 2.359,2.165 z m 18.702,-20.267 c -1.107,-0.494 -2.411,-0.945 -3.92,-1.363 -1.5,-0.417 -3.094,-0.621 -4.776,-0.621 -3.088,0 -5.359,0.473 -6.814,1.414 -1.456,0.948 -2.446,2.308 -2.972,4.068 H 0 c -0.858,-0.878 -1.683,-1.63 -2.48,-2.252 -0.789,-0.623 -1.639,-1.158 -2.542,-1.597 -1.185,-0.569 -2.323,-0.999 -3.418,-1.288 -1.096,-0.281 -2.623,-0.423 -4.588,-0.423 -2.928,0 -5.417,0.888 -7.479,2.666 -2.066,1.78 -3.102,4.139 -3.102,7.072 0,1.688 0.227,3.126 0.684,4.306 0.456,1.18 1.096,2.224 1.927,3.134 0.755,0.831 1.633,1.526 2.624,2.069 0.988,0.542 2.085,1.051 3.27,1.516 2.261,0.859 4.977,1.751 8.154,2.669 3.172,0.924 5.486,1.749 6.95,2.478 v 3.731 c 0,0.653 -0.051,1.507 -0.156,2.571 -0.096,1.062 -0.316,1.955 -0.642,2.682 -0.349,0.83 -0.902,1.533 -1.656,2.101 -0.755,0.569 -1.744,0.856 -2.981,0.856 -1.104,0 -2.035,-0.16 -2.771,-0.486 -0.744,-0.323 -1.341,-0.654 -1.788,-0.991 0.072,-0.522 0.29,-1.313 0.64,-2.374 0.352,-1.065 0.527,-2.085 0.527,-3.077 0,-0.438 -0.114,-0.99 -0.341,-1.646 -0.22,-0.669 -0.554,-1.19 -0.983,-1.579 -0.578,-0.518 -1.227,-0.921 -1.948,-1.206 -0.717,-0.284 -1.822,-0.43 -3.304,-0.43 -2.121,0 -3.717,0.528 -4.803,1.577 -1.089,1.047 -1.623,2.416 -1.623,4.106 0,1.451 0.554,2.756 1.676,3.909 1.122,1.154 2.48,2.109 4.093,2.858 1.58,0.78 3.404,1.379 5.462,1.809 2.06,0.432 3.971,0.64 5.733,0.64 2.436,0 4.673,-0.149 6.708,-0.445 2.031,-0.301 3.875,-0.912 5.506,-1.845 1.56,-0.908 2.795,-2.224 3.714,-3.95 0.915,-1.729 1.379,-3.978 1.379,-6.752 0,-2.927 -0.062,-6.408 -0.175,-10.424 -0.115,-4.024 -0.166,-6.666 -0.166,-7.938 0,-1.166 0.166,-2.087 0.509,-2.76 0.34,-0.679 0.858,-1.179 1.567,-1.518 0.422,-0.206 1.095,-0.329 2.017,-0.371 0.91,-0.037 1.754,-0.058 2.508,-0.058 z" /></g></g></g></g></svg>