<?xml version="1.0" encoding="UTF-8" standalone="no"?>
<svg
   xmlns:dc="http://purl.org/dc/elements/1.1/"
   xmlns:cc="http://creativecommons.org/ns#"
   xmlns:rdf="http://www.w3.org/1999/02/22-rdf-syntax-ns#"
   xmlns:svg="http://www.w3.org/2000/svg"
   xmlns="http://www.w3.org/2000/svg"
   viewBox="0 0 497.83066 534.56665"
   height="534.56665"
   width="497.83066"
   xml:space="preserve"
   id="svg2"
   version="1.1"><metadata
     id="metadata8"><rdf:RDF><cc:Work
         rdf:about=""><dc:format>image/svg+xml</dc:format><dc:type
           rdf:resource="http://purl.org/dc/dcmitype/StillImage" /></cc:Work></rdf:RDF></metadata><defs
     id="defs6"><clipPath
       id="clipPath18"
       clipPathUnits="userSpaceOnUse"><path
         id="path16"
         d="M 0,400.925 H 373.373 V 0 H 0 Z" /></clipPath><clipPath
       id="clipPath36"
       clipPathUnits="userSpaceOnUse"><path
         id="path34"
         d="m 31.909,216.415 c 0,-85.253 69.109,-154.363 154.361,-154.363 v 0 c 85.252,0 154.362,69.11 154.362,154.363 v 0 c 0,85.252 -69.11,154.362 -154.362,154.362 v 0 c -85.252,0 -154.361,-69.11 -154.361,-154.362" /></clipPath></defs><g
     transform="matrix(1.3333333,0,0,-1.3333333,0,534.56667)"
     id="g10"><g
       id="g12"><g
         clip-path="url(#clipPath18)"
         id="g14"><g
           transform="translate(341.7319,215.314)"
           id="g20"><path
             id="path22"
             style="fill:#96d2d7;fill-opacity:1;fill-rule:nonzero;stroke:none"
             d="m 0,0 c 0,85.252 -69.11,154.362 -154.362,154.362 -85.252,0 -154.362,-69.11 -154.362,-154.362 0,-85.251 69.11,-154.361 154.362,-154.361 C -69.11,-154.361 0,-85.251 0,0" /></g><g
           transform="translate(276.1299,394.1777)"
           id="g24"><path
             id="path26"
             style="fill:#da5f49;fill-opacity:1;fill-rule:nonzero;stroke:none"
             d="M 0,0 H -75.911 L -48.92,-26.991 -75.911,-47.234 H -2.249 Z" /></g><path
           id="path28"
           style="fill:#da5f49;fill-opacity:1;fill-rule:nonzero;stroke:none"
           d="m 272.194,400.925 h 7.873 V 283.403 h -7.873 z" /></g></g><g
       id="g30"><g
         clip-path="url(#clipPath36)"
         id="g32"><g
           transform="translate(0,68.0391)"
           id="g38"><path
             id="path40"
             style="fill:#edd17a;fill-opacity:1;fill-rule:nonzero;stroke:none"
             d="M 0,0 107.4,190.06 162.507,37.113 275.531,241.23 357.065,32.613 256.412,-42.172 Z" /></g><g
           transform="translate(226.6099,222.1118)"
           id="g42"><path
             id="path44"
             style="fill:#ffffff;fill-opacity:1;fill-rule:nonzero;stroke:none"
             d="M 0,0 48.921,87.157 93.905,-28.678 53.981,3.936 31.489,-26.991 23.617,8.997 Z" /></g><g
           transform="translate(0,68.0391)"
           id="g46"><path
             id="path48"
             style="fill:#9abe54;fill-opacity:1;fill-rule:nonzero;stroke:none"
             d="m 0,0 62.416,111.338 3.936,-38.238 32.052,41.611 17.993,-80.41 33.177,36.551 12.933,-33.739 26.991,48.358 30.926,-72.537 15.745,28.677 13.496,-26.99 28.115,56.793 19.118,-50.047 39.362,62.416 37.113,-95.592 -159.696,-56.23 z" /></g></g></g></g></svg>