<?xml version="1.0" encoding="UTF-8" standalone="no"?>
<svg
   xmlns:dc="http://purl.org/dc/elements/1.1/"
   xmlns:cc="http://creativecommons.org/ns#"
   xmlns:rdf="http://www.w3.org/1999/02/22-rdf-syntax-ns#"
   xmlns:svg="http://www.w3.org/2000/svg"
   xmlns="http://www.w3.org/2000/svg"
   viewBox="0 0 548.57202 83.71093"
   height="83.71093"
   width="548.57202"
   xml:space="preserve"
   id="svg2"
   version="1.1"><metadata
     id="metadata8"><rdf:RDF><cc:Work
         rdf:about=""><dc:format>image/svg+xml</dc:format><dc:type
           rdf:resource="http://purl.org/dc/dcmitype/StillImage" /></cc:Work></rdf:RDF></metadata><defs
     id="defs6"><clipPath
       id="clipPath18"
       clipPathUnits="userSpaceOnUse"><path
         id="path16"
         d="M 0,62.783 H 411.429 V 0 H 0 Z" /></clipPath></defs><g
     transform="matrix(1.3333333,0,0,-1.3333333,0,83.710933)"
     id="g10"><g
       id="g12"><g
         clip-path="url(#clipPath18)"
         id="g14"><g
           transform="translate(411.4292,4.8047)"
           id="g20"><path
             id="path22"
             style="fill:#80b51b;fill-opacity:1;fill-rule:nonzero;stroke:none"
             d="M 0,0 C 0,-2.566 -2.12,-4.805 -4.679,-4.805 H -406.75 c -2.56,0 -4.679,2.078 -4.679,4.663 v 53.31 c 0,2.572 2.119,4.811 4.679,4.811 H -4.679 C -2.12,57.979 0,55.896 0,53.313 Z" /></g><g
           transform="translate(189.0552,10.3545)"
           id="g24"><path
             id="path26"
             style="fill:#ffffff;fill-opacity:1;fill-rule:nonzero;stroke:none"
             d="M 0,0 C -1.134,0 -2.022,0.374 -2.735,1.146 -3.42,1.914 -3.793,3.097 -3.793,4.693 v 29.984 0.399 h -0.397 -9.121 c -1.306,0 -2.306,0.28 -2.899,0.841 -0.631,0.559 -0.925,1.268 -0.925,2.183 0,0.963 0.307,1.679 0.932,2.209 0.654,0.551 1.618,0.833 2.892,0.833 H 13.26 c 1.325,0 2.316,-0.282 2.918,-0.841 0.646,-0.559 0.926,-1.295 0.926,-2.201 0,-0.908 -0.28,-1.624 -0.933,-2.183 -0.627,-0.561 -1.59,-0.841 -2.911,-0.841 H 4.137 3.721 V 34.677 4.693 C 3.721,3.079 3.383,1.874 2.667,1.124 1.991,0.374 1.101,0 0,0" /></g><g
           transform="translate(219.8242,45.0254)"
           id="g28"><path
             id="path30"
             style="fill:#ffffff;fill-opacity:1;fill-rule:nonzero;stroke:none"
             d="m 0,0 -0.394,-1.087 -6.09,-17.004 -0.192,-0.55 h 0.565 12.315 0.608 l -0.215,0.55 -6.2,17.004 z m 15.273,-34.671 c -0.58,0 -1.084,0.112 -1.513,0.321 -0.394,0.227 -0.746,0.5 -1.026,0.851 -0.28,0.37 -0.632,0.975 -0.97,1.762 -0.362,0.824 -0.689,1.55 -0.939,2.196 l -1.97,5.174 -0.112,0.252 H 8.459 -8.303 -8.592 l -0.101,-0.26 -1.979,-5.271 c -0.749,-2.041 -1.387,-3.405 -1.881,-4.091 -0.468,-0.62 -1.245,-0.934 -2.355,-0.934 -0.959,0 -1.765,0.374 -2.489,1.044 -0.746,0.721 -1.118,1.475 -1.118,2.315 0,0.544 0.092,1.083 0.279,1.646 0.186,0.592 0.485,1.429 0.932,2.458 l 10.54,26.79 1.09,2.783 c 0.403,1.037 0.856,1.934 1.308,2.612 0.429,0.653 1.033,1.212 1.733,1.586 0.72,0.417 1.634,0.626 2.679,0.626 1.111,0 2.01,-0.209 2.706,-0.626 C 3.498,6.183 4.058,5.63 4.524,4.98 4.991,4.324 5.364,3.592 5.681,2.832 6.017,2.029 6.429,0.966 6.95,-0.341 l 10.76,-26.635 c 0.808,-1.974 1.246,-3.403 1.246,-4.244 0,-0.862 -0.345,-1.634 -1.091,-2.35 -0.728,-0.727 -1.58,-1.101 -2.592,-1.101" /></g><g
           transform="translate(272.4805,10.3545)"
           id="g32"><path
             id="path34"
             style="fill:#ffffff;fill-opacity:1;fill-rule:nonzero;stroke:none"
             d="m 0,0 c -1.103,0 -1.954,0.25 -2.606,0.69 -0.696,0.459 -1.297,1.081 -1.773,1.848 -0.479,0.82 -0.933,1.566 -1.319,2.254 l -9.891,15.213 -0.265,0.425 -0.373,-0.365 -6.827,-6.539 -0.145,-0.118 V 13.239 4.693 c 0,-1.614 -0.349,-2.817 -1.051,-3.569 C -24.989,0.374 -25.867,0 -27.003,0 c -0.625,0 -1.258,0.187 -1.838,0.534 -0.609,0.313 -1.06,0.772 -1.379,1.34 -0.217,0.459 -0.373,1.025 -0.424,1.67 -0.043,0.665 -0.076,1.681 -0.076,2.986 v 30.688 c 0,1.568 0.315,2.748 0.996,3.516 0.67,0.765 1.556,1.126 2.721,1.126 1.164,0 2.05,-0.361 2.753,-1.118 0.702,-0.754 1.051,-1.933 1.051,-3.524 V 22.747 21.729 l 0.722,0.735 16.415,17.091 c 0.75,0.825 1.405,1.399 1.946,1.772 0.483,0.369 1.138,0.533 1.976,0.533 1.093,0 1.961,-0.321 2.612,-0.947 0.653,-0.612 0.994,-1.358 0.994,-2.292 0,-1.09 -0.613,-2.208 -1.753,-3.32 L -10.441,25.669 -10.723,25.442 -10.525,25.15 1.213,8.393 C 2.002,7.235 2.618,6.246 3.004,5.388 3.397,4.571 3.599,3.758 3.599,3.001 3.599,2.213 3.271,1.508 2.636,0.934 2.002,0.317 1.125,0 0,0" /></g><g
           transform="translate(318.9443,41.6055)"
           id="g36"><path
             id="path38"
             style="fill:#ffffff;fill-opacity:1;fill-rule:nonzero;stroke:none"
             d="m 0,0 c -0.187,-0.029 -0.55,-0.163 -0.933,-0.163 -0.771,0 -1.214,0.35 -1.214,1.376 v 5.046 h -0.982 v 0.675 h 0.982 v 1.929 h 0.794 V 6.934 h 1.286 V 6.259 H -1.353 V 1.538 c 0,-0.693 0.041,-0.976 0.698,-0.976 0.196,0 0.446,0.042 0.655,0.092 z" /></g><g
           transform="translate(324.728,45.248)"
           id="g40"><path
             id="path42"
             style="fill:#ffffff;fill-opacity:1;fill-rule:nonzero;stroke:none"
             d="m 0,0 c -0.653,-0.28 -1.366,-0.306 -2.052,-0.376 -1.215,-0.095 -1.961,-0.538 -1.961,-1.471 0,-0.835 0.746,-1.234 1.494,-1.234 1.288,0 2.519,0.622 2.519,2.029 z M -1.325,0.419 C -1.026,0.46 -0.56,0.531 -0.28,0.649 0,0.75 0,1.115 0,1.374 c 0,0.799 -0.466,1.399 -1.698,1.399 -1.1,0 -1.867,-0.354 -2.033,-1.563 h -0.81 c 0.134,1.616 1.347,2.268 2.862,2.268 1.399,0 2.502,-0.538 2.502,-2.15 V -2.43 c 0,-0.63 0.148,-0.754 0.842,-0.537 V -3.578 C 1.53,-3.639 1.249,-3.73 1.026,-3.73 c -0.13,0 -0.242,0.017 -0.373,0.058 -0.524,0.071 -0.617,0.541 -0.642,1.031 -0.664,-0.752 -1.565,-1.165 -2.552,-1.165 -1.213,0 -2.31,0.654 -2.31,2.004 0,1.146 0.797,1.87 2.426,2.079 z" /></g><g
           transform="translate(327.585,41.6328)"
           id="g44"><path
             id="path46"
             style="fill:#ffffff;fill-opacity:1;fill-rule:nonzero;stroke:none"
             d="M 0,0 V 9.593 H 0.782 V 3.615 L 4.179,6.906 H 5.261 L 2.687,4.43 5.583,0 H 4.698 L 2.088,3.865 0.782,2.608 V 0 Z" /></g><g
           transform="translate(339.2891,45.5723)"
           id="g48"><path
             id="path50"
             style="fill:#ffffff;fill-opacity:1;fill-rule:nonzero;stroke:none"
             d="M 0,0 C 0,1.353 -0.749,2.449 -2.157,2.449 -3.581,2.449 -4.327,1.312 -4.484,0 Z m -4.484,-0.675 c -0.007,-1.496 0.769,-2.73 2.327,-2.73 1.032,0 1.847,0.563 2.062,1.585 H 0.83 c -0.414,-1.306 -1.233,-2.31 -2.987,-2.31 -2.237,0 -3.176,1.567 -3.176,3.616 0,2.031 1.194,3.667 3.176,3.667 1.867,0 3.039,-1.335 3.021,-3.828 z" /></g><g
           transform="translate(321.0283,30.7842)"
           id="g52"><path
             id="path54"
             style="fill:#ffffff;fill-opacity:1;fill-rule:nonzero;stroke:none"
             d="m 0,0 c -0.687,-0.279 -1.358,-0.354 -2.075,-0.38 -1.215,-0.098 -1.944,-0.553 -1.944,-1.484 0,-0.84 0.729,-1.225 1.495,-1.225 1.278,0 2.524,0.585 2.524,1.989 z m -1.338,0.374 c 0.278,0.041 0.776,0.115 1.036,0.25 C -0.032,0.746 0,1.112 0,1.329 c 0,0.817 -0.489,1.4 -1.711,1.4 -1.12,0 -1.866,-0.351 -2.026,-1.545 h -0.799 c 0.118,1.616 1.332,2.269 2.825,2.269 1.398,0 2.517,-0.56 2.517,-2.145 v -3.745 c 0,-0.641 0.168,-0.791 0.841,-0.547 v -0.634 c -0.111,-0.02 -0.393,-0.113 -0.643,-0.113 -0.103,0 -0.214,0 -0.353,0.019 -0.517,0.074 -0.612,0.541 -0.632,1.025 -0.676,-0.746 -1.564,-1.138 -2.571,-1.138 -1.211,0 -2.327,0.654 -2.327,1.979 0,1.183 0.832,1.868 2.422,2.092 z" /></g><g
           transform="translate(329.7661,28.2139)"
           id="g56"><path
             id="path58"
             style="fill:#ffffff;fill-opacity:1;fill-rule:nonzero;stroke:none"
             d="M 0,0 1.813,5.837 H 2.616 L 0.375,-1.067 h -0.842 l -1.492,5.783 h -0.036 l -1.55,-5.783 h -0.933 l -2.136,6.904 h 0.83 l 1.772,-5.879 1.586,5.879 h 0.918 z" /></g><g
           transform="translate(338.0669,30.7842)"
           id="g60"><path
             id="path62"
             style="fill:#ffffff;fill-opacity:1;fill-rule:nonzero;stroke:none"
             d="m 0,0 c -0.655,-0.279 -1.372,-0.354 -2.052,-0.38 -1.21,-0.098 -1.956,-0.553 -1.956,-1.484 0,-0.84 0.746,-1.225 1.493,-1.225 1.278,0 2.515,0.585 2.515,1.989 z m -1.331,0.374 c 0.299,0.041 0.771,0.115 1.055,0.25 C -0.002,0.746 0,1.112 0,1.329 c 0,0.817 -0.463,1.4 -1.706,1.4 -1.097,0 -1.865,-0.351 -2.025,-1.545 h -0.816 c 0.134,1.616 1.349,2.269 2.866,2.269 1.397,0 2.5,-0.56 2.5,-2.145 v -3.745 c 0,-0.641 0.144,-0.791 0.84,-0.547 v -0.634 c -0.135,-0.02 -0.414,-0.113 -0.631,-0.113 -0.138,0 -0.25,0 -0.373,0.019 -0.53,0.074 -0.627,0.541 -0.648,1.025 -0.656,-0.746 -1.565,-1.138 -2.552,-1.138 -1.213,0 -2.306,0.654 -2.306,1.979 0,1.183 0.791,1.868 2.424,2.092 z" /></g><g
           transform="translate(340.916,25.2803)"
           id="g64"><path
             id="path66"
             style="fill:#ffffff;fill-opacity:1;fill-rule:nonzero;stroke:none"
             d="m 0,0 c 0.231,-0.059 0.425,-0.093 0.675,-0.093 0.892,0 1.049,1.306 1.327,1.899 L -0.672,8.771 H 0.231 L 2.45,2.837 4.647,8.771 H 5.532 L 2.935,1.959 C 2.284,0.221 1.868,-0.839 0.769,-0.839 0.487,-0.839 0.231,-0.825 0,-0.746 Z" /></g><g
           transform="translate(316.4517,12.668)"
           id="g68"><path
             id="path70"
             style="fill:#ffffff;fill-opacity:1;fill-rule:nonzero;stroke:none"
             d="M 0,0 V 9.598 H 0.813 V 3.62 L 4.181,6.911 H 5.292 L 2.687,4.403 5.581,0 H 4.711 L 2.12,3.843 0.813,2.616 V 0 Z" /></g><g
           transform="translate(323.9819,12.668)"
           id="g72"><path
             id="path74"
             style="fill:#ffffff;fill-opacity:1;fill-rule:nonzero;stroke:none"
             d="M 0,0 H -0.808 V 6.911 H 0 V 5.933 c 0.653,0.695 1.269,1.165 2.239,1.165 0.84,0 1.586,-0.269 2.09,-1.015 C 4.665,5.616 4.665,5.07 4.665,4.496 V 0 H 3.883 V 4.496 C 3.883,5.725 3.358,6.362 2.09,6.362 1.12,6.362 0.427,5.709 0.187,5.023 0,4.59 0,4.201 0,3.713 Z" /></g><g
           transform="translate(333.3335,19.0303)"
           id="g76"><path
             id="path78"
             style="fill:#ffffff;fill-opacity:1;fill-rule:nonzero;stroke:none"
             d="m 0,0 c -1.681,0 -2.355,-1.414 -2.355,-2.907 0,-1.746 0.842,-2.936 2.355,-2.936 1.679,0 2.356,1.459 2.356,2.936 C 2.334,-1.306 1.701,0 0,0 m -3.192,-2.907 c 0,1.993 1.063,3.642 3.192,3.642 2.168,0 3.216,-1.631 3.216,-3.642 0,-2.213 -1.281,-3.645 -3.216,-3.645 -1.754,0.023 -3.192,1.235 -3.192,3.645" /></g><g
           transform="translate(343.8506,13.7129)"
           id="g80"><path
             id="path82"
             style="fill:#ffffff;fill-opacity:1;fill-rule:nonzero;stroke:none"
             d="m 0,0 1.81,5.866 h 0.8 L 0.374,-1.045 h -0.838 l -1.493,5.803 h -0.041 l -1.547,-5.803 h -0.933 l -2.14,6.911 h 0.832 l 1.777,-5.903 1.584,5.903 h 0.912 z" /></g><path
           id="path84"
           style="fill:#ffffff;fill-opacity:1;fill-rule:nonzero;stroke:none"
           d="m 347.767,22.266 h 0.787 v -9.598 h -0.787 z" /><g
           transform="translate(355.6055,16.6055)"
           id="g86"><path
             id="path88"
             style="fill:#ffffff;fill-opacity:1;fill-rule:nonzero;stroke:none"
             d="M 0,0 C 0,1.32 -0.747,2.425 -2.194,2.425 -3.616,2.425 -4.366,1.305 -4.51,0 Z m -4.51,-0.668 c -0.02,-1.496 0.776,-2.75 2.316,-2.75 1.047,0 1.845,0.581 2.102,1.589 h 0.885 c -0.418,-1.31 -1.235,-2.298 -2.987,-2.298 -2.2,0 -3.176,1.569 -3.176,3.601 0,2.017 1.192,3.686 3.176,3.686 1.908,0 3.039,-1.373 3.035,-3.828 z" /></g><g
           transform="translate(361.0161,19.0303)"
           id="g90"><path
             id="path92"
             style="fill:#ffffff;fill-opacity:1;fill-rule:nonzero;stroke:none"
             d="m 0,0 c -1.672,0 -2.426,-1.399 -2.358,-3.134 0.022,-1.717 1.009,-2.709 2.358,-2.709 1.493,0 2.334,1.272 2.334,2.951 C 2.334,-1.321 1.454,0 0,0 m 2.334,3.235 h 0.8 v -9.597 h -0.8 V -5.15 H 2.312 c -0.465,-0.913 -1.536,-1.402 -2.403,-1.402 -2.24,0 -3.126,1.589 -3.126,3.622 0,1.918 0.978,3.665 3.083,3.665 0.975,0 1.959,-0.456 2.468,-1.295 z" /></g><g
           transform="translate(369.1509,19.0303)"
           id="g94"><path
             id="path96"
             style="fill:#ffffff;fill-opacity:1;fill-rule:nonzero;stroke:none"
             d="M 0,0 C -1.325,0 -2.351,-0.967 -2.351,-2.705 -2.429,-4.444 -1.64,-5.843 0,-5.843 c 1.476,0 2.333,1.347 2.333,2.892 C 2.333,-1.292 1.515,0 0,0 m 2.333,0.549 h 0.822 v -6.24 c 0,-1.865 -0.636,-3.514 -3.267,-3.514 -2.017,0 -2.858,1.183 -2.89,2 h 0.838 c 0.242,-1.049 1.119,-1.284 2.052,-1.284 2.207,0 2.506,1.638 2.445,3.227 -0.484,-0.842 -1.493,-1.29 -2.445,-1.29 -2.131,0 -3.076,1.701 -3.076,3.66 0,2.041 0.873,3.627 3.095,3.627 0.901,0 1.942,-0.51 2.406,-1.399 h 0.02 z" /></g><g
           transform="translate(379.3008,16.6055)"
           id="g98"><path
             id="path100"
             style="fill:#ffffff;fill-opacity:1;fill-rule:nonzero;stroke:none"
             d="M 0,0 C 0,1.32 -0.746,2.425 -2.172,2.425 -3.595,2.425 -4.34,1.305 -4.487,0 Z m -4.487,-0.668 c -0.021,-1.496 0.758,-2.75 2.315,-2.75 1.049,0 1.845,0.581 2.083,1.589 h 0.908 c -0.42,-1.31 -1.239,-2.298 -2.991,-2.298 -2.211,0 -3.177,1.569 -3.177,3.601 0,2.017 1.194,3.686 3.177,3.686 1.896,0 3.04,-1.373 3.019,-3.828 z" /></g><g
           transform="translate(293.9429,10.085)"
           id="g102"><path
             id="path104"
             style="fill:#ffffff;fill-opacity:1;fill-rule:nonzero;stroke:none"
             d="m 0,0 c -1.679,0.176 -6.706,-0.051 -7.09,2.825 -0.56,4.691 -1.082,9.382 -1.594,14.049 -0.052,0.207 0.101,0.4 0.33,0.438 0.236,0.029 0.422,-0.142 0.422,-0.344 C -7.372,12.3 -6.838,7.603 -6.32,2.882 -6.402,1.184 -1.708,0.829 0.043,0.808 0.931,0.744 1.795,0.736 2.703,0.736 c 1.95,0 3.911,0.126 5.777,0.548 1.089,0.198 2.341,0.665 2.422,1.639 0.192,1.639 0.382,3.264 0.561,4.902 0.383,3.545 0.799,7.095 1.224,10.662 0.374,3.537 0.795,7.067 1.211,10.609 0.095,0.806 0.186,1.587 0.28,2.387 0.008,0.404 0.082,0.786 0.099,1.158 0.039,0.383 0.089,0.799 0.47,1.131 0.282,0.276 0.439,0.641 0.439,1.015 0,0.45 -0.168,0.843 -0.486,1.126 -0.334,0.362 -0.86,0.553 -1.367,0.74 l -0.272,0.092 v 0.28 1.579 0.011 c -0.01,1.022 -0.187,1.492 -1.12,1.955 -1.125,0.56 -2.521,0.729 -3.829,0.888 -1.395,0.139 -2.774,0.246 -4.119,0.291 h -0.17 c -2.799,0 -5.54,0 -8.277,-0.433 C -5.81,41.13 -7.559,40.85 -8.277,39.88 -8.463,39.604 -8.491,39.265 -8.491,38.891 v -0.652 c 0,-0.052 0.028,-0.56 0.028,-0.915 0,-0.089 -0.006,-0.161 -0.016,-0.22 -0.033,-0.109 0.103,-0.079 -0.291,-0.451 -0.095,-0.027 -0.186,-0.087 -0.283,-0.097 -0.808,-0.356 -1.491,-0.956 -1.47,-1.677 0,-0.07 0,-0.092 0.005,-0.148 0.067,-0.544 0.538,-1.064 1.109,-1.436 2.141,-1.399 5.155,-1.747 7.752,-1.96 1.431,-0.131 2.868,-0.187 4.269,-0.187 0.224,0 0.401,-0.186 0.401,-0.383 0,-0.241 -0.177,-0.423 -0.401,-0.423 -1.429,0 -2.894,0.06 -4.329,0.19 -2.619,0.242 -5.746,0.579 -8.094,2.109 -0.638,0.422 -1.384,1.038 -1.479,1.992 v 0.246 c 0,1.213 1.009,1.994 1.922,2.403 0.039,0.019 0.076,0.024 0.13,0.024 v 0.018 c 0,0.339 -0.032,0.81 -0.032,0.915 -0.005,0.186 -0.022,0.407 -0.022,0.652 0,0.445 0.054,0.933 0.368,1.445 1.088,1.354 3.021,1.54 4.351,1.764 2.799,0.429 5.597,0.429 8.396,0.429 h 0.179 c 1.409,-0.013 2.806,-0.13 4.202,-0.28 1.311,-0.186 2.778,-0.361 4.075,-0.958 1.184,-0.529 1.619,-1.533 1.575,-2.676 0,0 0.011,-0.011 0.011,-0.015 -0.01,-0.454 -0.011,-0.861 -0.017,-1.294 0.476,-0.187 0.983,-0.403 1.388,-0.807 0.475,-0.44 0.715,-1.059 0.715,-1.712 0,-0.559 -0.187,-1.12 -0.648,-1.575 C 15.051,32.92 15.161,33.107 15.083,32.548 15.018,32.175 14.991,31.794 14.93,31.398 14.846,30.588 14.752,29.82 14.661,29.007 14.271,25.472 13.874,21.938 13.448,18.404 13.061,14.837 12.65,11.282 12.221,7.732 12.032,6.106 11.848,4.467 11.659,2.825 11.417,1.203 9.723,0.736 8.633,0.49 6.713,0.083 4.666,-0.067 2.703,-0.067 1.771,-0.067 0.892,-0.018 0,0" /></g><g
           transform="translate(294.7373,46.8906)"
           id="g106"><path
             id="path108"
             style="fill:#ffffff;fill-opacity:1;fill-rule:nonzero;stroke:none"
             d="M 0,0 C 0,0.22 0.172,0.406 0.413,0.406 4.62,0.369 8.336,1.245 8.908,1.873 8.909,1.889 8.922,1.893 8.932,1.898 8.908,1.91 8.813,1.981 8.736,1.993 8.534,2.085 8.439,2.32 8.534,2.522 8.626,2.735 8.838,2.831 9.049,2.739 9.377,2.552 9.706,2.395 9.745,1.898 9.563,0.926 8.445,0.686 6.823,0.223 5.176,-0.152 2.896,-0.402 0.413,-0.402 V -0.41 C 0.172,-0.41 0,-0.235 0,0" /></g></g></g></g></svg>