<?xml version="1.0" encoding="UTF-8" standalone="no"?>
<svg
   xmlns:dc="http://purl.org/dc/elements/1.1/"
   xmlns:cc="http://creativecommons.org/ns#"
   xmlns:rdf="http://www.w3.org/1999/02/22-rdf-syntax-ns#"
   xmlns:svg="http://www.w3.org/2000/svg"
   xmlns="http://www.w3.org/2000/svg"
   viewBox="0 0 126.14587 50.675732"
   height="50.675732"
   width="126.14587"
   xml:space="preserve"
   id="svg2"
   version="1.1"><metadata
     id="metadata8"><rdf:RDF><cc:Work
         rdf:about=""><dc:format>image/svg+xml</dc:format><dc:type
           rdf:resource="http://purl.org/dc/dcmitype/StillImage" /></cc:Work></rdf:RDF></metadata><defs
     id="defs6"><clipPath
       id="clipPath18"
       clipPathUnits="userSpaceOnUse"><path
         id="path16"
         d="M 0,38.007 H 94.609 V 0 H 0 Z" /></clipPath></defs><g
     transform="matrix(1.3333333,0,0,-1.3333333,0,50.675733)"
     id="g10"><g
       id="g12"><g
         clip-path="url(#clipPath18)"
         id="g14"><g
           transform="translate(15.5508)"
           id="g20"><path
             id="path22"
             style="fill:#80b51b;fill-opacity:1;fill-rule:nonzero;stroke:none"
             d="m 0,0 c -1.023,0 -1.834,0.34 -2.473,1.031 -0.64,0.694 -0.963,1.776 -0.963,3.223 v 27.225 0.373 h -0.373 -8.283 c -1.193,0 -2.082,0.256 -2.637,0.759 -0.554,0.5 -0.822,1.151 -0.822,1.989 0,0.861 0.278,1.521 0.854,2.015 0.582,0.498 1.461,0.751 2.605,0.751 h 24.133 c 1.209,0 2.109,-0.26 2.674,-0.77 0.562,-0.511 0.838,-1.164 0.838,-1.996 0,-0.834 -0.276,-1.485 -0.846,-1.985 -0.574,-0.506 -1.471,-0.763 -2.666,-0.763 H 3.758 3.385 V 31.479 4.254 C 3.385,2.789 3.066,1.7 2.436,1.02 1.805,0.334 1.007,0 0,0" /></g><g
           transform="translate(43.5059,31.4785)"
           id="g24"><path
             id="path26"
             style="fill:#80b51b;fill-opacity:1;fill-rule:nonzero;stroke:none"
             d="m 0,0 -0.35,-0.973 -5.548,-15.466 -0.18,-0.5 H -5.547 5.652 6.186 L 6.002,-16.437 0.354,-0.97 Z m 13.883,-31.476 c -0.535,0 -0.996,0.093 -1.367,0.279 -0.382,0.19 -0.692,0.442 -0.948,0.766 -0.269,0.34 -0.566,0.881 -0.882,1.608 -0.332,0.753 -0.616,1.42 -0.856,1.998 l -1.785,4.694 -0.092,0.241 H 7.695 -7.539 -7.799 l -0.092,-0.244 -1.789,-4.805 c -0.681,-1.832 -1.267,-3.078 -1.736,-3.7 -0.424,-0.564 -1.121,-0.837 -2.129,-0.837 -0.865,0 -1.607,0.309 -2.275,0.946 -0.662,0.63 -0.983,1.319 -0.983,2.104 0,0.469 0.08,0.965 0.239,1.475 0.166,0.535 0.447,1.286 0.834,2.246 l 9.587,24.337 0.983,2.52 c 0.373,0.951 0.771,1.746 1.191,2.369 0.401,0.596 0.934,1.087 1.584,1.454 0.649,0.367 1.469,0.553 2.436,0.553 0.988,0 1.816,-0.186 2.463,-0.553 C 3.168,5.606 3.703,5.122 4.102,4.542 4.521,3.936 4.877,3.274 5.164,2.582 5.465,1.85 5.846,0.878 6.299,-0.312 l 9.793,-24.189 c 0.744,-1.789 1.123,-3.092 1.123,-3.874 0,-0.771 -0.32,-1.468 -0.977,-2.127 -0.658,-0.656 -1.429,-0.974 -2.355,-0.974" /></g><g
           transform="translate(91.3262)"
           id="g28"><path
             id="path30"
             style="fill:#80b51b;fill-opacity:1;fill-rule:nonzero;stroke:none"
             d="m 0,0 c -0.977,0 -1.773,0.206 -2.371,0.615 -0.621,0.422 -1.15,0.986 -1.58,1.685 -0.461,0.751 -0.865,1.429 -1.223,2.041 l -8.982,13.818 -0.246,0.378 -0.325,-0.311 -6.212,-5.957 -0.116,-0.112 V 11.998 4.254 c 0,-1.46 -0.326,-2.548 -0.97,-3.233 C -22.674,0.334 -23.488,0 -24.514,0 c -0.58,0 -1.144,0.157 -1.681,0.465 -0.537,0.304 -0.953,0.721 -1.239,1.235 -0.209,0.42 -0.341,0.929 -0.39,1.514 -0.049,0.609 -0.074,1.518 -0.074,2.703 v 27.864 c 0,1.433 0.308,2.511 0.918,3.202 0.601,0.689 1.41,1.024 2.466,1.024 1.043,0 1.862,-0.334 2.498,-1.02 0.637,-0.683 0.961,-1.761 0.961,-3.206 v -13.142 -0.93 l 0.645,0.674 14.904,15.541 c 0.697,0.733 1.293,1.274 1.772,1.617 0.437,0.308 1.039,0.466 1.791,0.466 1,0 1.781,-0.281 2.386,-0.856 0.602,-0.568 0.897,-1.246 0.897,-2.068 0,-0.996 -0.539,-2.017 -1.598,-3.027 l -9.23,-8.743 -0.233,-0.22 0.188,-0.264 L 1.1,7.595 C 1.836,6.558 2.393,5.644 2.754,4.874 3.104,4.133 3.283,3.408 3.283,2.723 3.283,1.987 2.998,1.368 2.416,0.822 1.836,0.277 1.021,0 0,0" /></g></g></g></g></svg>